PathFileType	4	(X/Y/Z)	/home/lloyd/projects/artisynth/mainroot/artisynth_core/src/artisynth/demos/tutorial/data/multiJointMkrs.trc
DataRate	CameraRate	NumFrames	NumMarkers	Units	OrigDataRate	OrigDataStartFrame	OrigNumFrames
50	50	61	5	mm	50	1	151
Frame#	Time	mkr1			mkr2			mkr3			mkr4			mkr5		
		X1	Y1	Z1	X2	Y2	Z2	X3	Y3	Z3	X4	Y4	Z4	X5	Y5	Z5

1	 0.0000000	-0.2571150	-0.1000000	-0.3064178	-0.2571150	 0.1000000	-0.3064178	 0.2052121	-0.0750000	-0.5638156	 0.2052121	 0.0750000	-0.5638156	 0.4760342	-0.0000000	-0.6115688
2	 0.0200000	-0.2578274	-0.1000000	-0.3058186	-0.2578274	 0.1000000	-0.3058186	 0.1998556	-0.0750000	-0.5848403	 0.1998556	 0.0750000	-0.5848403	 0.4687124	-0.0000000	-0.6426419
3	 0.0400000	-0.2585384	-0.1000000	-0.3052178	-0.2585384	 0.1000000	-0.3052178	 0.1936880	-0.0750000	-0.6056878	 0.1936880	 0.0750000	-0.6056878	 0.4602068	-0.0000000	-0.6734575
4	 0.0600000	-0.2592480	-0.1000000	-0.3046153	-0.2592480	 0.1000000	-0.3046153	 0.1867164	-0.0750000	-0.6263279	 0.1867164	 0.0750000	-0.6263279	 0.4505278	-0.0000000	-0.7039718
5	 0.0800000	-0.2599561	-0.1000000	-0.3040112	-0.2599561	 0.1000000	-0.3040112	 0.1789491	-0.0750000	-0.6467306	 0.1789491	 0.0750000	-0.6467306	 0.4396873	-0.0000000	-0.7341411
6	 0.1000000	-0.2606629	-0.1000000	-0.3034054	-0.2606629	 0.1000000	-0.3034054	 0.1703954	-0.0750000	-0.6668665	 0.1703954	 0.0750000	-0.6668665	 0.4276990	-0.0000000	-0.7639224
7	 0.1200000	-0.2613682	-0.1000000	-0.3027980	-0.2613682	 0.1000000	-0.3027980	 0.1610655	-0.0750000	-0.6867064	 0.1610655	 0.0750000	-0.6867064	 0.4145779	-0.0000000	-0.7932732
8	 0.1400000	-0.2620722	-0.1000000	-0.3021890	-0.2620722	 0.1000000	-0.3021890	 0.1509711	-0.0750000	-0.7062215	 0.1509711	 0.0750000	-0.7062215	 0.4003408	-0.0000000	-0.8221515
9	 0.1600000	-0.2627747	-0.1000000	-0.3015783	-0.2627747	 0.1000000	-0.3015783	 0.1401246	-0.0750000	-0.7253836	 0.1401246	 0.0750000	-0.7253836	 0.3850059	-0.0000000	-0.8505160
10	 0.1800000	-0.2634758	-0.1000000	-0.3009660	-0.2634758	 0.1000000	-0.3009660	 0.1285396	-0.0750000	-0.7441647	 0.1285396	 0.0750000	-0.7441647	 0.3685931	-0.0000000	-0.8783261
11	 0.2000000	-0.2641754	-0.1000000	-0.3003520	-0.2641754	 0.1000000	-0.3003520	 0.1162307	-0.0750000	-0.7625377	 0.1162307	 0.0750000	-0.7625377	 0.3511237	-0.0000000	-0.9055421
12	 0.2200000	-0.2648737	-0.1000000	-0.2997364	-0.2648737	 0.1000000	-0.2997364	 0.1032135	-0.0750000	-0.7804757	 0.1032135	 0.0750000	-0.7804757	 0.3326204	-0.0000000	-0.9321249
13	 0.2400000	-0.2655705	-0.1000000	-0.2991192	-0.2655705	 0.1000000	-0.2991192	 0.0895047	-0.0750000	-0.7979526	 0.0895047	 0.0750000	-0.7979526	 0.3131074	-0.0000000	-0.9580365
14	 0.2600000	-0.2662658	-0.1000000	-0.2985004	-0.2662658	 0.1000000	-0.2985004	 0.0751218	-0.0750000	-0.8149430	 0.0751218	 0.0750000	-0.8149430	 0.2926104	-0.0000000	-0.9832395
15	 0.2800000	-0.2669598	-0.1000000	-0.2978800	-0.2669598	 0.1000000	-0.2978800	 0.0600833	-0.0750000	-0.8314219	 0.0600833	 0.0750000	-0.8314219	 0.2711563	-0.0000000	-1.0076978
16	 0.3000000	-0.2676522	-0.1000000	-0.2972579	-0.2676522	 0.1000000	-0.2972579	 0.0444085	-0.0750000	-0.8473653	 0.0444085	 0.0750000	-0.8473653	 0.2487734	-0.0000000	-1.0313762
17	 0.3200000	-0.2683433	-0.1000000	-0.2966343	-0.2683433	 0.1000000	-0.2966343	 0.0281179	-0.0750000	-0.8627497	 0.0281179	 0.0750000	-0.8627497	 0.2254912	-0.0000000	-1.0542406
18	 0.3400000	-0.2690328	-0.1000000	-0.2960090	-0.2690328	 0.1000000	-0.2960090	 0.0112325	-0.0750000	-0.8775526	 0.0112325	 0.0750000	-0.8775526	 0.2013408	-0.0000000	-1.0762580
19	 0.3600000	-0.2697210	-0.1000000	-0.2953821	-0.2697210	 0.1000000	-0.2953821	-0.0062257	-0.0750000	-0.8917521	-0.0062257	 0.0750000	-0.8917521	 0.1763540	-0.0000000	-1.0973965
20	 0.3800000	-0.2704076	-0.1000000	-0.2947537	-0.2704076	 0.1000000	-0.2947537	-0.0242339	-0.0750000	-0.9053272	-0.0242339	 0.0750000	-0.9053272	 0.1505641	-0.0000000	-1.1176257
21	 0.4000000	-0.2710928	-0.1000000	-0.2941236	-0.2710928	 0.1000000	-0.2941236	-0.0427685	-0.0750000	-0.9182579	-0.0427685	 0.0750000	-0.9182579	 0.1240055	-0.0000000	-1.1369161
22	 0.4200000	-0.2717765	-0.1000000	-0.2934919	-0.2717765	 0.1000000	-0.2934919	-0.0618054	-0.0750000	-0.9305249	-0.0618054	 0.0750000	-0.9305249	 0.0967135	-0.0000000	-1.1552397
23	 0.4400000	-0.2724588	-0.1000000	-0.2928587	-0.2724588	 0.1000000	-0.2928587	-0.0813195	-0.0750000	-0.9421098	-0.0813195	 0.0750000	-0.9421098	 0.0687245	-0.0000000	-1.1725698
24	 0.4600000	-0.2731395	-0.1000000	-0.2922239	-0.2731395	 0.1000000	-0.2922239	-0.1012851	-0.0750000	-0.9529954	-0.1012851	 0.0750000	-0.9529954	 0.0400760	-0.0000000	-1.1888810
25	 0.4800000	-0.2738188	-0.1000000	-0.2915875	-0.2738188	 0.1000000	-0.2915875	-0.1216761	-0.0750000	-0.9631652	-0.1216761	 0.0750000	-0.9631652	 0.0108062	-0.0000000	-1.2041495
26	 0.5000000	-0.2744967	-0.1000000	-0.2909495	-0.2744967	 0.1000000	-0.2909495	-0.1424655	-0.0750000	-0.9726038	-0.1424655	 0.0750000	-0.9726038	-0.0190457	-0.0000000	-1.2183527
27	 0.5200000	-0.2751730	-0.1000000	-0.2903099	-0.2751730	 0.1000000	-0.2903099	-0.1636259	-0.0750000	-0.9812967	-0.1636259	 0.0750000	-0.9812967	-0.0494397	-0.0000000	-1.2314697
28	 0.5400000	-0.2758478	-0.1000000	-0.2896687	-0.2758478	 0.1000000	-0.2896687	-0.1851295	-0.0750000	-0.9892307	-0.1851295	 0.0750000	-0.9892307	-0.0803351	-0.0000000	-1.2434809
29	 0.5600000	-0.2765212	-0.1000000	-0.2890260	-0.2765212	 0.1000000	-0.2890260	-0.2069478	-0.0750000	-0.9963934	-0.2069478	 0.0750000	-0.9963934	-0.1116905	-0.0000000	-1.2543683
30	 0.5800000	-0.2771930	-0.1000000	-0.2883818	-0.2771930	 0.1000000	-0.2883818	-0.2290519	-0.0750000	-1.0027735	-0.2290519	 0.0750000	-1.0027735	-0.1434638	-0.0000000	-1.2641156
31	 0.6000000	-0.2778633	-0.1000000	-0.2877359	-0.2778633	 0.1000000	-0.2877359	-0.2514126	-0.0750000	-1.0083609	-0.2514126	 0.0750000	-1.0083609	-0.1756123	-0.0000000	-1.2727079
32	 0.6200000	-0.2785322	-0.1000000	-0.2870885	-0.2785322	 0.1000000	-0.2870885	-0.2740003	-0.0750000	-1.0131464	-0.2740003	 0.0750000	-1.0131464	-0.2080929	-0.0000000	-1.2801319
33	 0.6400000	-0.2791995	-0.1000000	-0.2864396	-0.2791995	 0.1000000	-0.2864396	-0.2967851	-0.0750000	-1.0171222	-0.2967851	 0.0750000	-1.0171222	-0.2408619	-0.0000000	-1.2863759
34	 0.6600000	-0.2798653	-0.1000000	-0.2857891	-0.2798653	 0.1000000	-0.2857891	-0.3197368	-0.0750000	-1.0202812	-0.3197368	 0.0750000	-1.0202812	-0.2738754	-0.0000000	-1.2914301
35	 0.6800000	-0.2805296	-0.1000000	-0.2851370	-0.2805296	 0.1000000	-0.2851370	-0.3428248	-0.0750000	-1.0226179	-0.3428248	 0.0750000	-1.0226179	-0.3070888	-0.0000000	-1.2952861
36	 0.7000000	-0.2811924	-0.1000000	-0.2844834	-0.2811924	 0.1000000	-0.2844834	-0.3660187	-0.0750000	-1.0241276	-0.3660187	 0.0750000	-1.0241276	-0.3404575	-0.0000000	-1.2979371
37	 0.7200000	-0.2818537	-0.1000000	-0.2838283	-0.2818537	 0.1000000	-0.2838283	-0.3892876	-0.0750000	-1.0248069	-0.3892876	 0.0750000	-1.0248069	-0.3739367	-0.0000000	-1.2993781
38	 0.7400000	-0.2825134	-0.1000000	-0.2831716	-0.2825134	 0.1000000	-0.2831716	-0.4126007	-0.0750000	-1.0246535	-0.4126007	 0.0750000	-1.0246535	-0.4074813	-0.0000000	-1.2996058
39	 0.7600000	-0.2848749	-0.0940547	-0.2828427	-0.2806864	 0.1059015	-0.2828427	-0.4257417	-0.0660984	-1.0242641	-0.4226003	 0.0838687	-1.0242641	-0.4241710	 0.0088851	-1.2992641
40	 0.7800000	-0.2885636	-0.0820428	-0.2828427	-0.2760055	 0.1175625	-0.2828427	-0.4281362	-0.0482122	-1.0242641	-0.4187176	 0.1014918	-1.0242641	-0.4234269	 0.0266398	-1.2992641
41	 0.8000000	-0.2917461	-0.0698871	-0.2828427	-0.2708404	 0.1290173	-0.2828427	-0.4297795	-0.0302415	-1.0242641	-0.4141003	 0.1189368	-1.0242641	-0.4219399	 0.0443477	-1.2992641
42	 0.8200000	-0.2944168	-0.0576087	-0.2828427	-0.2652002	 0.1402458	-0.2828427	-0.4306689	-0.0122176	-1.0242641	-0.4087565	 0.1361732	-1.0242641	-0.4197127	 0.0619778	-1.2992641
43	 0.8400000	-0.2965709	-0.0452293	-0.2828427	-0.2590947	 0.1512282	-0.2828427	-0.4308028	 0.0058276	-1.0242641	-0.4026956	 0.1531707	-1.0242641	-0.4167492	 0.0794992	-1.2992641
44	 0.8600000	-0.2982048	-0.0327705	-0.2828427	-0.2525346	 0.1619453	-0.2828427	-0.4301809	 0.0238627	-1.0242641	-0.3959282	 0.1698995	-1.0242641	-0.4130545	 0.0968811	-1.2992641
45	 0.8800000	-0.2993155	-0.0202542	-0.2828427	-0.2455315	 0.1723783	-0.2828427	-0.4288043	 0.0418558	-1.0242641	-0.3884663	 0.1863302	-1.0242641	-0.4086353	 0.1140930	-1.2992641
46	 0.9000000	-0.2999011	-0.0077024	-0.2828427	-0.2380977	 0.1825089	-0.2828427	-0.4266754	 0.0597756	-1.0242641	-0.3803228	 0.2024340	-1.0242641	-0.4034991	 0.1311048	-1.2992641
47	 0.9200000	-0.2999606	 0.0048629	-0.2828427	-0.2302462	 0.1923193	-0.2828427	-0.4237980	 0.0775904	-1.0242641	-0.3715122	 0.2181827	-1.0242641	-0.3976551	 0.1478866	-1.2992641
48	 0.9400000	-0.2994938	 0.0174196	-0.2828427	-0.2219907	 0.2017923	-0.2828427	-0.4201771	 0.0952692	-1.0242641	-0.3620497	 0.2335487	-1.0242641	-0.3911134	 0.1644089	-1.2992641
49	 0.9600000	-0.2985017	 0.0299459	-0.2828427	-0.2133458	 0.2109113	-0.2828427	-0.4158191	 0.1127808	-1.0242641	-0.3519522	 0.2485049	-1.0242641	-0.3838856	 0.1806429	-1.2992641
50	 0.9800000	-0.2969858	 0.0424195	-0.2828427	-0.2043266	 0.2196603	-0.2828427	-0.4107315	 0.1300946	-1.0242641	-0.3412371	 0.2630251	-1.0242641	-0.3759843	 0.1965599	-1.2992641
51	 1.0000000	-0.2949490	 0.0548188	-0.2828427	-0.1949490	 0.2280239	-0.2828427	-0.4049235	 0.1471801	-1.0242641	-0.3299235	 0.2770839	-1.0242641	-0.3674235	 0.2121320	-1.2992641
52	 1.0200000	-0.2923947	 0.0671219	-0.2828427	-0.1852293	 0.2359875	-0.2828427	-0.3984050	 0.1640075	-1.0242641	-0.3180310	 0.2906567	-1.0242641	-0.3582180	 0.2273321	-1.2992641
53	 1.0400000	-0.2893274	 0.0793073	-0.2828427	-0.1751847	 0.2435371	-0.2828427	-0.3911876	 0.1805471	-1.0242641	-0.3055806	 0.3037195	-1.0242641	-0.3483841	 0.2421333	-1.2992641
54	 1.0600000	-0.2857526	 0.0913535	-0.2828427	-0.1648328	 0.2506594	-0.2828427	-0.3832840	 0.1967699	-1.0242641	-0.2925941	 0.3162494	-1.0242641	-0.3379390	 0.2565097	-1.2992641
55	 1.0800000	-0.2816765	 0.1032394	-0.2828427	-0.1541917	 0.2573421	-0.2828427	-0.3747079	 0.2126476	-1.0242641	-0.2790943	 0.3282246	-1.0242641	-0.3269011	 0.2704361	-1.2992641
56	 1.1000000	-0.2771062	 0.1149442	-0.2828427	-0.1432800	 0.2635732	-0.2828427	-0.3654744	 0.2281522	-1.0242641	-0.2651049	 0.3396239	-1.0242641	-0.3152896	 0.2838881	-1.2992641
57	 1.1200000	-0.2720497	 0.1264474	-0.2828427	-0.1321171	 0.2693419	-0.2828427	-0.3555998	 0.2432566	-1.0242641	-0.2506503	 0.3504275	-1.0242641	-0.3031251	 0.2968420	-1.2992641
58	 1.1400000	-0.2665160	 0.1377288	-0.2828427	-0.1207223	 0.2746382	-0.2828427	-0.3451014	 0.2579342	-1.0242641	-0.2357561	 0.3606162	-1.0242641	-0.2904287	 0.3092752	-1.2992641
59	 1.1600000	-0.2605148	 0.1487685	-0.2828427	-0.1091158	 0.2794526	-0.2828427	-0.3339975	 0.2721593	-1.0242641	-0.2204483	 0.3701723	-1.0242641	-0.2772229	 0.3211658	-1.2992641
60	 1.1800000	-0.2540565	 0.1595472	-0.2828427	-0.0973178	 0.2837768	-0.2828427	-0.3223077	 0.2859069	-1.0242641	-0.2047537	 0.3790791	-1.0242641	-0.2635307	 0.3324930	-1.2992641
61	 1.2000000	-0.2471525	 0.1700460	-0.2828427	-0.0853491	 0.2876031	-0.2828427	-0.3100524	 0.2991529	-1.0242641	-0.1886999	 0.3873207	-1.0242641	-0.2493762	 0.3432368	-1.2992641
